<svg xmlns="http://www.w3.org/2000/svg" xmlns:xlink="http://www.w3.org/1999/xlink" width="500" zoomAndPan="magnify" viewBox="0 0 375 374.999991" height="500" preserveAspectRatio="xMidYMid meet" version="1.2"><g id="9fae515cfc"><rect x="0" width="375" y="0" height="374.999991" style="fill:#ffffff;fill-opacity:1;stroke:none;"/><rect x="0" width="375" y="0" height="374.999991" style="fill:#040222;fill-opacity:1;stroke:none;"/><path style=" stroke:none;fill-rule:nonzero;fill:#6c00c1;fill-opacity:1;" d="M 181.3125 136.132812 L 179.070312 141.183594 L 178.027344 143.539062 C 177.828125 144.125 177.554688 144.714844 177.207031 145.457031 L 139.308594 226.828125 C 137.542969 230.714844 136.117188 233.226562 135.023438 234.371094 C 133.710938 235.664062 132.144531 236.417969 130.3125 236.636719 L 130.3125 239.042969 L 145.84375 239.042969 L 165.691406 195.789062 L 186.933594 149.507812 Z M 181.3125 136.132812 "/><path style=" stroke:none;fill-rule:nonzero;fill:#ff9b0b;fill-opacity:1;" d="M 203.613281 185.910156 C 188.8125 188.136719 176.164062 198.027344 166.523438 208.710938 C 165.832031 209.472656 165.164062 210.25 164.515625 211.007812 C 157.726562 218.980469 151.875 227.589844 146.964844 236.835938 C 146.863281 237.023438 146.777344 237.195312 146.6875 237.355469 L 146.457031 237.796875 C 146.382812 237.921875 146.316406 238.050781 146.257812 238.183594 L 146.097656 238.503906 L 165.6875 195.777344 C 167.914062 194.5 170.207031 193.363281 172.574219 192.367188 C 188.113281 185.75 203.613281 185.910156 203.613281 185.910156 Z M 203.613281 185.910156 "/><path style=" stroke:none;fill-rule:nonzero;fill:#5463ed;fill-opacity:1;" d="M 239.296875 234.097656 C 238.4375 233.09375 236.660156 229.710938 234 223.929688 L 197.679688 145.480469 L 193.316406 136.132812 L 181.3125 136.132812 L 186.933594 149.507812 L 210.242188 200.363281 L 214.617188 210.179688 L 223.078125 228.648438 C 224.195312 230.953125 224.753906 232.519531 224.753906 233.320312 C 224.753906 235.128906 223.277344 236.234375 220.339844 236.636719 L 220.339844 239.042969 L 244.902344 239.042969 L 244.902344 236.636719 C 242.023438 235.9375 240.15625 235.070312 239.296875 234.097656 Z M 239.296875 234.097656 "/><path style=" stroke:none;fill-rule:nonzero;fill:#1e2ebc;fill-opacity:1;" d="M 179.070312 141.183594 L 181.3125 136.132812 Z M 179.070312 141.183594 "/><path style=" stroke:none;fill-rule:nonzero;fill:#000000;fill-opacity:0.29;" d="M 181.3125 136.132812 L 179.070312 141.183594 L 184.597656 154.613281 L 186.933594 149.511719 Z M 181.3125 136.132812 "/><path style=" stroke:none;fill-rule:nonzero;fill:#000000;fill-opacity:0.29;" d="M 146.105469 238.515625 L 146.261719 238.195312 C 146.320312 238.0625 146.386719 237.933594 146.464844 237.808594 C 146.523438 237.667969 146.609375 237.527344 146.691406 237.367188 C 146.777344 237.207031 146.871094 237.035156 146.96875 236.847656 C 151.871094 227.601562 157.710938 218.992188 164.492188 211.019531 L 172.570312 192.390625 C 170.203125 193.386719 167.90625 194.523438 165.679688 195.800781 Z M 146.105469 238.515625 "/></g></svg>